<svg width="154" height="104" viewBox="0 0 154 104" fill="none" xmlns="http://www.w3.org/2000/svg">
<path d="M13.5909 71H1.5L17.2045 24.4545H32.1818L47.8864 71H35.7955L24.8636 36.1818H24.5L13.5909 71ZM11.9773 52.6818H37.25V61.2273H11.9773V52.6818ZM52.8977 71V24.4545H72.125C75.6098 24.4545 78.6174 25.0833 81.1477 26.3409C83.6932 27.5833 85.6553 29.3712 87.0341 31.7045C88.4129 34.0227 89.1023 36.7727 89.1023 39.9545C89.1023 43.1818 88.3977 45.9242 86.9886 48.1818C85.5795 50.4242 83.5795 52.1364 80.9886 53.3182C78.3977 54.4848 75.3295 55.0682 71.7841 55.0682H59.625V46.2045H69.6932C71.3902 46.2045 72.8068 45.9848 73.9432 45.5455C75.0947 45.0909 75.9659 44.4091 76.5568 43.5C77.1477 42.5758 77.4432 41.3939 77.4432 39.9545C77.4432 38.5151 77.1477 37.3258 76.5568 36.3864C75.9659 35.4318 75.0947 34.7197 73.9432 34.25C72.7917 33.7652 71.375 33.5227 69.6932 33.5227H64.1477V71H52.8977ZM79.1023 49.7273L90.6932 71H78.4205L67.0568 49.7273H79.1023ZM106.523 24.4545V71H95.2727V24.4545H106.523Z" fill="#181059"/>
<path d="M113.426 71V64.5909L136.04 33.5909H113.449V24.4545H150.267V30.8636L127.653 61.8636H150.244V71H113.426Z" fill="#8645FF"/>
<path d="M54.7344 85.7969H50.8281C50.776 85.3958 50.6693 85.0339 50.5078 84.7109C50.3464 84.388 50.1328 84.112 49.8672 83.8828C49.6016 83.6536 49.2865 83.4792 48.9219 83.3594C48.5625 83.2344 48.1641 83.1719 47.7266 83.1719C46.9505 83.1719 46.2813 83.362 45.7188 83.7422C45.1615 84.1224 44.7318 84.6719 44.4297 85.3906C44.1328 86.1094 43.9844 86.9792 43.9844 88C43.9844 89.0625 44.1354 89.9531 44.4375 90.6719C44.7448 91.3854 45.1745 91.9245 45.7266 92.2891C46.2839 92.6484 46.9427 92.8281 47.7031 92.8281C48.1302 92.8281 48.5182 92.7734 48.8672 92.6641C49.2214 92.5547 49.5313 92.3958 49.7969 92.1875C50.0677 91.974 50.2891 91.7161 50.4609 91.4141C50.638 91.1068 50.7604 90.7604 50.8281 90.375L54.7344 90.3984C54.6667 91.1068 54.4609 91.8047 54.1172 92.4922C53.7786 93.1797 53.3125 93.8073 52.7188 94.375C52.125 94.9375 51.401 95.3854 50.5469 95.7187C49.6979 96.0521 48.724 96.2187 47.625 96.2187C46.1771 96.2187 44.8802 95.901 43.7344 95.2656C42.5938 94.625 41.6927 93.6927 41.0313 92.4687C40.3698 91.2448 40.0391 89.7552 40.0391 88C40.0391 86.2396 40.375 84.7474 41.0469 83.5234C41.7188 82.2995 42.6276 81.3698 43.7734 80.7344C44.9193 80.099 46.2031 79.7812 47.625 79.7812C48.5938 79.7812 49.4896 79.9167 50.3125 80.1875C51.1354 80.4531 51.8594 80.8437 52.4844 81.3594C53.1094 81.8698 53.6172 82.4974 54.0078 83.2422C54.3984 83.987 54.6406 84.8385 54.7344 85.7969ZM56.9473 96V80H60.8145V92.8594H67.4707V96H56.9473ZM83.9512 88C83.9512 89.7604 83.6126 91.2526 82.9355 92.4766C82.2585 93.7005 81.3418 94.6302 80.1855 95.2656C79.0345 95.901 77.7428 96.2187 76.3105 96.2187C74.873 96.2187 73.5788 95.8984 72.4277 95.2578C71.2767 94.6172 70.3626 93.6875 69.6855 92.4687C69.0137 91.2448 68.6777 89.7552 68.6777 88C68.6777 86.2396 69.0137 84.7474 69.6855 83.5234C70.3626 82.2995 71.2767 81.3698 72.4277 80.7344C73.5788 80.099 74.873 79.7812 76.3105 79.7812C77.7428 79.7812 79.0345 80.099 80.1855 80.7344C81.3418 81.3698 82.2585 82.2995 82.9355 83.5234C83.6126 84.7474 83.9512 86.2396 83.9512 88ZM79.998 88C79.998 86.9583 79.8496 86.0781 79.5527 85.3594C79.2611 84.6406 78.8392 84.0964 78.2871 83.7266C77.7402 83.3568 77.0814 83.1719 76.3105 83.1719C75.5449 83.1719 74.8861 83.3568 74.334 83.7266C73.7819 84.0964 73.3574 84.6406 73.0605 85.3594C72.7689 86.0781 72.623 86.9583 72.623 88C72.623 89.0417 72.7689 89.9219 73.0605 90.6406C73.3574 91.3594 73.7819 91.9036 74.334 92.2734C74.8861 92.6432 75.5449 92.8281 76.3105 92.8281C77.0814 92.8281 77.7402 92.6432 78.2871 92.2734C78.8392 91.9036 79.2611 91.3594 79.5527 90.6406C79.8496 89.9219 79.998 89.0417 79.998 88ZM95.8887 80H99.748V90.3203C99.748 91.513 99.4642 92.5521 98.8965 93.4375C98.3288 94.3177 97.5371 95 96.5215 95.4844C95.5059 95.9635 94.3262 96.2031 92.9824 96.2031C91.623 96.2031 90.4355 95.9635 89.4199 95.4844C88.4043 95 87.6152 94.3177 87.0527 93.4375C86.4902 92.5521 86.209 91.513 86.209 90.3203V80H90.0762V89.9844C90.0762 90.5365 90.196 91.0286 90.4355 91.4609C90.6803 91.8932 91.0215 92.2318 91.459 92.4766C91.8965 92.7214 92.4043 92.8438 92.9824 92.8438C93.5605 92.8438 94.0658 92.7214 94.498 92.4766C94.9355 92.2318 95.2767 91.8932 95.5215 91.4609C95.7663 91.0286 95.8887 90.5365 95.8887 89.9844V80ZM108.086 96H102.172V80H108.078C109.708 80 111.112 80.3203 112.289 80.9609C113.471 81.5964 114.383 82.513 115.023 83.7109C115.664 84.9036 115.984 86.3307 115.984 87.9922C115.984 89.6589 115.664 91.0911 115.023 92.2891C114.388 93.487 113.479 94.4062 112.297 95.0469C111.115 95.6823 109.711 96 108.086 96ZM106.039 92.7031H107.938C108.833 92.7031 109.591 92.5521 110.211 92.25C110.836 91.9427 111.307 91.4453 111.625 90.7578C111.948 90.0651 112.109 89.1432 112.109 87.9922C112.109 86.8411 111.948 85.9245 111.625 85.2422C111.302 84.5547 110.826 84.0599 110.195 83.7578C109.57 83.4505 108.799 83.2969 107.883 83.2969H106.039V92.7031Z" fill="#8645FF"/>
<mask id="path-3-inside-1_78_10" fill="white">
<path d="M107 24V71H94L94 24H107Z"/>
</mask>
<path d="M107 24V71H94L94 24H107Z" fill="#8645FF"/>
<path d="M107.5 24C107.167 24 106.833 24 106.5 24C106.625 24.7673 106.741 25.5345 106.875 26.3018C106.889 26.3848 107 26.4678 107 26.5508C107 26.5716 107 26.5924 107 26.6133C107 26.6185 107 26.6237 107 26.6289C107 26.6341 107 26.6393 107 26.6445C107 26.6549 107 26.6654 107 26.6758C107 27.3184 107 27.961 107 28.6036C107 29.0691 107 29.5345 107 30C107 43.6667 107 57.3333 107 71C102.667 71 98.3333 71 94 71C94 60.8738 94 50.7476 94 40.6214C94 39.2528 94.1179 37.8842 94.5 36.5155C95.6647 32.3437 97.8073 28.1718 99.7976 24L94 29.7976C94.8606 30.2082 95.7212 30.6123 96.5819 31C98.0546 31.6634 99.5273 32.5849 101 33.3428C101.103 33.3961 101.207 33.4485 101.31 33.5C101.721 33.7042 102.131 34 102.541 34C103.267 34 103.993 32.1822 104.718 31C105.479 29.7608 106.239 28 107 26.5C107 24.8333 107 23.1667 107 21.5C106.239 20 105.479 18.2392 104.718 17C103.993 15.8178 103.267 14 102.541 14C102.131 14 101.721 14.2958 101.31 14.5C101.207 14.5515 101.103 14.6039 101 14.6572C99.5273 15.4151 98.0546 16.3366 96.5819 17C95.7212 17.3877 94.8606 17.7918 94 18.2024L87.0242 21.5304L88.2024 24C90.1927 28.1718 92.3353 32.3437 93.5 36.5155C93.8821 37.8842 94 39.2528 94 40.6214C94 50.7476 94 60.8738 94 71C98.3333 71 102.667 71 107 71C107 57.3333 107 43.6667 107 30C107 29.5345 107 29.0691 107 28.6036C107 27.961 107 27.3184 107 26.6758C107 26.6654 107 26.6549 107 26.6445C107 26.6393 107 26.6341 107 26.6289C107 26.6237 107 26.6185 107 26.6133C107 26.5924 107 26.5716 107 26.5508C107 26.4678 107.111 26.3848 107.125 26.3018C107.259 25.5345 107.375 24.7673 107.5 24ZM106.5 24H107.5L107.07 21.3616L107 21.5V26.5L106.5 24Z" fill="#181059" mask="url(#path-3-inside-1_78_10)"/>
<path d="M88.4053 42.5789C88.3373 43.3103 88.2219 44.0496 88.0146 44.8787C87.7574 45.9076 87.6457 46.4719 87.3574 47.1062C87.0717 47.7348 86.6037 48.4454 85.6094 49.6882C84.6517 50.8852 83.5717 51.7259 82.7295 52.2673C82.3091 52.5376 81.95 52.7323 81.6982 52.8582C81.5725 52.921 81.4732 52.9664 81.4072 52.9958C81.3745 53.0105 81.3497 53.0214 81.334 53.0281C81.3263 53.0313 81.3207 53.0336 81.3174 53.0349C81.3161 53.0354 81.315 53.0356 81.3145 53.0359L80.792 53.2449L81.0605 53.739L90.1592 70.4998H78.2959L69.9385 55.2595L69.7959 54.9998H64V70.4998H53.5V55.1853C53.5442 55.1343 53.6002 55.0705 53.666 54.9949C53.8498 54.7838 54.1138 54.4827 54.4326 54.1218C55.0709 53.3994 55.9294 52.4393 56.8125 51.489C57.6972 50.537 58.5996 49.6015 59.3271 48.9236C59.6927 48.583 60.0021 48.319 60.2363 48.1511C60.3318 48.0827 60.4046 48.0389 60.4551 48.0125C61.1472 48.2472 64.0015 49.2306 66.9189 50.2195C68.4772 50.7477 70.0516 51.2765 71.3154 51.6912C72.5637 52.1007 73.5454 52.4111 73.8916 52.488C74.0272 52.5182 74.1564 52.503 74.249 52.4851C74.3487 52.4658 74.4515 52.4337 74.5518 52.3962C74.7524 52.3212 74.9875 52.2077 75.2441 52.0691C75.7598 51.7904 76.4137 51.3826 77.1494 50.8943C78.6238 49.9157 80.4646 48.5881 82.2598 47.2566C84.0563 45.9241 85.8133 44.5833 87.1201 43.5759C87.623 43.1882 88.0585 42.8485 88.4053 42.5789Z" fill="#8645FF" stroke="#8645FF"/>
</svg>
